<?xml version="1.0" standalone="no"?>
<!DOCTYPE svg PUBLIC "-//W3C//DTD SVG 20010904//EN"
 "http://www.w3.org/TR/2001/REC-SVG-20010904/DTD/svg10.dtd">
<svg version="1.0" xmlns="http://www.w3.org/2000/svg"
 width="260.000000pt" height="260.000000pt" viewBox="0 0 260.000000 260.000000"
 preserveAspectRatio="xMidYMid meet">
<metadata>
Created by potrace 1.11, written by Peter Selinger 2001-2013
</metadata>
<g transform="translate(0.000000,260.000000) scale(0.100000,-0.100000)"
fill="#000000" stroke="none">
<path d="M1240 2325 l0 -225 50 0 50 0 0 225 0 225 -50 0 -50 0 0 -225z"/>
<path d="M421 2191 c-13 -16 -23 -32 -23 -36 0 -7 125 -136 256 -264 l55 -54
33 36 34 36 -155 155 c-86 86 -161 156 -166 156 -6 -1 -21 -14 -34 -29z"/>
<path d="M2118 2200 c-7 -11 -15 -20 -19 -20 -3 0 -66 -61 -141 -136 l-135
-136 35 -34 36 -34 110 107 c61 60 132 131 158 158 l47 51 -30 32 c-35 37 -44
39 -61 12z"/>
<path d="M1160 2035 c-158 -32 -268 -92 -385 -210 -69 -68 -101 -109 -132
-170 -124 -239 -119 -509 13 -736 56 -96 191 -225 290 -276 124 -64 217 -87
354 -87 139 0 211 17 335 79 192 94 327 260 387 472 16 59 22 106 22 193 0
140 -16 209 -81 340 -39 80 -60 109 -137 185 -102 102 -196 158 -326 195 -93
27 -249 33 -340 15z"/>
<path d="M50 1290 l0 -50 225 0 225 0 0 50 0 50 -225 0 -225 0 0 -50z"/>
<path d="M2100 1290 l0 -50 225 0 225 0 0 50 0 50 -225 0 -225 0 0 -50z"/>
<path d="M531 616 l-154 -154 19 -25 c42 -56 40 -56 203 106 83 84 151 157
151 162 -2 16 -44 65 -55 65 -6 0 -79 -69 -164 -154z"/>
<path d="M1871 739 c-18 -16 -32 -32 -30 -34 77 -84 315 -312 323 -309 6 3 22
19 35 35 l24 30 -92 93 c-50 51 -91 92 -91 91 0 -2 -28 26 -62 61 -33 35 -64
64 -67 64 -4 0 -22 -14 -40 -31z"/>
<path d="M1240 275 l0 -225 50 0 50 0 0 225 0 225 -50 0 -50 0 0 -225z"/>
</g>
</svg>
