<?xml version="1.0" standalone="no"?>
<!DOCTYPE svg PUBLIC "-//W3C//DTD SVG 20010904//EN"
 "http://www.w3.org/TR/2001/REC-SVG-20010904/DTD/svg10.dtd">
<svg version="1.0" xmlns="http://www.w3.org/2000/svg"
 width="260.000000pt" height="260.000000pt" viewBox="0 0 260.000000 260.000000"
 preserveAspectRatio="xMidYMid meet">
<metadata>
Created by potrace 1.11, written by Peter Selinger 2001-2013
</metadata>
<g transform="translate(0.000000,260.000000) scale(0.100000,-0.100000)"
fill="#000000" stroke="none">
<path d="M1240 2325 l0 -225 50 0 50 0 0 225 0 225 -50 0 -50 0 0 -225z"/>
<path d="M417 2192 l-37 -38 163 -161 c179 -179 165 -173 222 -105 l19 23
-159 159 c-88 88 -162 160 -165 160 -3 0 -23 -17 -43 -38z"/>
<path d="M1975 2070 l-159 -159 19 -23 c57 -68 43 -74 222 105 l163 161 -37
38 c-20 21 -40 38 -43 38 -3 0 -77 -72 -165 -160z"/>
<path d="M1115 2031 c-254 -69 -445 -247 -532 -496 -26 -74 -28 -91 -28 -235
0 -144 2 -161 28 -235 40 -115 100 -209 186 -296 87 -86 181 -146 296 -186 74
-26 91 -28 235 -28 144 0 161 2 235 28 115 40 209 100 296 186 86 87 146 181
186 296 26 74 28 91 28 235 0 144 -2 161 -28 235 -40 115 -100 209 -186 296
-87 87 -182 146 -296 185 -109 37 -312 44 -420 15z"/>
<path d="M50 1290 l0 -50 225 0 225 0 0 50 0 50 -225 0 -225 0 0 -50z"/>
<path d="M2100 1290 l0 -50 225 0 225 0 0 50 0 50 -225 0 -225 0 0 -50z"/>
<path d="M530 625 l-165 -165 40 -40 40 -40 165 165 165 165 -40 40 -40 40
-165 -165z"/>
<path d="M1865 750 l-39 -40 164 -165 165 -165 40 40 40 40 -165 165 -166 165
-39 -40z"/>
<path d="M1240 275 l0 -225 50 0 50 0 0 225 0 225 -50 0 -50 0 0 -225z"/>
</g>
</svg>
