<?xml version="1.0" standalone="no"?>
<!DOCTYPE svg PUBLIC "-//W3C//DTD SVG 20010904//EN"
 "http://www.w3.org/TR/2001/REC-SVG-20010904/DTD/svg10.dtd">
<svg version="1.0" xmlns="http://www.w3.org/2000/svg"
 width="260.000000pt" height="260.000000pt" viewBox="0 0 260.000000 260.000000"
 preserveAspectRatio="xMidYMid meet">
<metadata>
Created by potrace 1.11, written by Peter Selinger 2001-2013
</metadata>
<g transform="translate(0.000000,260.000000) scale(0.100000,-0.100000)"
fill="#000000" stroke="none">
<path d="M1197 2348 c1 -106 2 -203 2 -215 1 -22 5 -23 90 -23 l89 0 0 215 -1
215 -91 0 -91 0 2 -192z"/>
<path d="M1953 2095 l-151 -152 64 -64 63 -63 153 153 153 152 -65 64 -66 63
-151 -153z"/>
<path d="M421 2175 c-34 -32 -61 -62 -61 -67 0 -12 284 -298 296 -298 6 0 36
27 69 60 l59 60 -151 152 -151 151 -61 -58z"/>
<path d="M1115 2031 c-254 -69 -445 -247 -532 -496 -26 -74 -28 -91 -28 -235
0 -144 2 -161 28 -235 40 -115 100 -209 186 -296 87 -86 181 -146 296 -186 74
-26 91 -28 235 -28 144 0 161 2 235 28 115 40 209 100 296 186 86 87 146 181
186 296 26 74 28 91 28 235 0 144 -2 161 -28 235 -40 115 -100 209 -186 296
-87 87 -182 146 -296 185 -109 37 -312 44 -420 15z"/>
<path d="M60 1290 l0 -90 215 0 215 0 0 90 0 90 -215 0 -215 0 0 -90z"/>
<path d="M2110 1290 l0 -90 215 0 215 0 0 90 0 90 -215 0 -215 0 0 -90z"/>
<path d="M503 646 c-79 -79 -143 -148 -143 -153 1 -9 46 -63 54 -63 10 0 54
-49 48 -54 -3 -3 1 -6 9 -6 8 0 81 68 163 150 l150 150 -59 60 c-33 33 -64 60
-70 60 -5 0 -74 -65 -152 -144z"/>
<path d="M1867 722 c-31 -32 -57 -61 -57 -66 0 -5 68 -76 150 -158 111 -111
152 -145 156 -134 3 9 12 16 20 16 8 0 14 4 14 9 0 5 19 27 42 50 l43 41 -150
150 c-82 82 -152 150 -155 150 -3 0 -31 -26 -63 -58z"/>
<path d="M1204 278 l1 -213 88 -3 c78 -2 87 -1 88 15 1 23 1 395 0 406 -1 4
-41 7 -90 7 l-89 0 2 -212z"/>
</g>
</svg>
