<?xml version="1.0" standalone="no"?>
<!DOCTYPE svg PUBLIC "-//W3C//DTD SVG 20010904//EN"
 "http://www.w3.org/TR/2001/REC-SVG-20010904/DTD/svg10.dtd">
<svg version="1.0" xmlns="http://www.w3.org/2000/svg"
 width="260.000000pt" height="260.000000pt" viewBox="0 0 260.000000 260.000000"
 preserveAspectRatio="xMidYMid meet">
<metadata>
Created by potrace 1.11, written by Peter Selinger 2001-2013
</metadata>
<g transform="translate(0.000000,260.000000) scale(0.100000,-0.100000)"
fill="#000000" stroke="none">
<path d="M1180 2350 l0 -240 110 0 110 0 0 240 0 240 -110 0 -110 0 0 -240z"/>
<path d="M440 2271 c0 -5 -29 -37 -65 -72 -36 -34 -65 -66 -65 -71 0 -5 75
-83 167 -174 l166 -166 78 78 77 79 -168 167 c-155 155 -190 184 -190 159z"/>
<path d="M1971 2113 l-170 -170 78 -77 78 -77 166 165 c92 91 167 169 167 173
0 5 -33 42 -74 82 l-75 74 -170 -170z"/>
<path d="M1115 2031 c-254 -69 -445 -247 -532 -496 -26 -74 -28 -91 -28 -235
0 -144 2 -161 28 -235 40 -115 100 -209 186 -296 87 -86 181 -146 296 -186 74
-26 91 -28 235 -28 144 0 161 2 235 28 115 40 209 100 296 186 86 87 146 181
186 296 26 74 28 91 28 235 0 144 -2 161 -28 235 -40 115 -100 209 -186 296
-87 87 -182 146 -296 185 -109 37 -312 44 -420 15z"/>
<path d="M10 1290 l0 -110 240 0 240 0 0 110 0 110 -240 0 -240 0 0 -110z"/>
<path d="M2110 1290 l0 -110 240 0 240 0 0 110 0 110 -240 0 -240 0 0 -110z"/>
<path d="M483 626 l-161 -163 19 -29 c10 -16 19 -26 19 -22 0 4 23 -18 51 -48
29 -30 56 -54 60 -54 4 0 83 75 175 166 l166 167 -73 73 c-41 41 -78 74 -84
73 -5 0 -83 -74 -172 -163z"/>
<path d="M1861 716 l-73 -74 166 -166 c91 -91 169 -166 174 -166 4 0 41 33 81
74 l74 75 -165 165 c-92 91 -170 166 -175 166 -5 0 -42 -33 -82 -74z"/>
<path d="M1180 250 l0 -240 110 0 110 0 0 240 0 240 -110 0 -110 0 0 -240z"/>
</g>
</svg>
